<svg width="120" height="120" viewBox="0 0 120 120" xmlns="http://www.w3.org/2000/svg">
  <!-- Background -->
  <rect width="120" height="120" rx="20" fill="#1976D2"/>
  
  <!-- WiFi Signal Waves -->
  <g fill="none" stroke="white" stroke-width="4" stroke-linecap="round">
    <!-- Outer wave -->
    <path d="M 45 25 Q 55 15, 65 25"/>
    <!-- Middle wave -->
    <path d="M 48 30 Q 55 23, 62 30"/>
    <!-- Inner wave -->
    <path d="M 51 35 Q 55 31, 59 35"/>
    <!-- Center dot -->
    <circle cx="55" cy="40" r="2" fill="white"/>
  </g>
  
  <!-- Palm Tree -->
  <g fill="white">
    <!-- Trunk (waves) -->
    <path d="M 50 45 Q 48 55, 50 65 Q 52 75, 50 85 Q 48 95, 50 105 L 60 105 Q 58 95, 60 85 Q 62 75, 60 65 Q 58 55, 60 45 Z"/>
    
    <!-- Palm Leaves -->
    <!-- Left leaf -->
    <path d="M 55 48 Q 35 40, 25 45 Q 30 48, 55 52"/>
    <!-- Right leaf -->
    <path d="M 55 48 Q 75 40, 85 45 Q 80 48, 55 52"/>
    <!-- Top left leaf -->
    <path d="M 55 45 Q 40 35, 32 38 Q 38 42, 55 48"/>
    <!-- Top right leaf -->
    <path d="M 55 45 Q 70 35, 78 38 Q 72 42, 55 48"/>
    <!-- Center top leaf -->
    <path d="M 55 42 Q 55 25, 55 22 Q 55 25, 55 45"/>
  </g>
  
  <!-- Wave lines at bottom (ocean) -->
  <g fill="none" stroke="white" stroke-width="2" opacity="0.6">
    <path d="M 20 85 Q 30 80, 40 85 Q 50 90, 60 85 Q 70 80, 80 85 Q 90 90, 100 85"/>
    <path d="M 20 90 Q 30 85, 40 90 Q 50 95, 60 90 Q 70 85, 80 90 Q 90 95, 100 90"/>
    <path d="M 20 95 Q 30 90, 40 95 Q 50 100, 60 95 Q 70 90, 80 95 Q 90 100, 100 95"/>
  </g>
</svg>
